2, 5, Note_on_c, 0, 69, 0
2, 5, Note_on_c, 0, 75, 100
2, 5, Note_on_c, 0, 76, 100
2, 485, Note_on_c, 0, 59, 0
2, 485, Note_on_c, 0, 76, 100
2, 1125, Note_on_c, 0, 61, 0
2, 1125, Note_on_c, 0, 50, 100
2, 1125, Note_on_c, 0, 75, 0
2, 1125, Note_on_c, 0, 76, 0
2, 1445, Note_on_c, 0, 62, 0
2, 1445, Note_on_c, 0, 62, 100
2, 1765, Note_on_c, 0, 62, 0
2, 1765, Note_on_c, 0, 67, 100
2, 2085, Note_on_c, 0, 67, 0
2, 2085, Note_on_c, 0, 70, 100
2, 2405, Note_on_c, 0, 67, 0
2, 2405, Note_on_c, 0, 63, 100
2, 2725, Note_on_c, 0, 72, 0
2, 2725, Note_on_c, 0, 73, 100
2, 2725, Note_on_c, 0, 50, 0
2, 2725, Note_on_c, 0, 70, 0
2, 3045, Note_on_c, 0, 67, 0
2, 3045, Note_on_c, 0, 67, 100
2, 3685, Note_on_c, 0, 62, 0
2, 3685, Note_on_c, 0, 30, 100
2, 3685, Note_on_c, 0, 63, 0
2, 3685, Note_on_c, 0, 73, 0
2, 4165, Note_on_c, 0, 60, 0
2, 4165, Note_on_c, 0, 64, 100
2, 5105, Note_on_c, 0, 72, 0
2, 5105, Note_on_c, 0, 60, 100
2, 5105, Note_on_c, 0, 67, 0
2, 5105, Note_on_c, 0, 30, 0
2, 5425, Note_on_c, 0, 70, 0
2, 5425, Note_on_c, 0, 67, 100
2, 5745, Note_on_c, 0, 69, 0
2, 6385, Note_on_c, 0, 30, 0
2, 6385, Note_on_c, 0, 49, 100
2, 6385, Note_on_c, 0, 64, 0
2, 6385, Note_on_c, 0, 60, 0
2, 6545, Note_on_c, 0, 66, 0
2, 6545, Note_on_c, 0, 67, 100
2, 6545, Note_on_c, 0, 38, 100
2, 6545, Note_on_c, 0, 67, 0
2, 6545, Note_on_c, 0, 49, 0
2, 7185, Note_on_c, 0, 61, 0
2, 7185, Note_on_c, 0, 52, 0
2, 7185, Note_on_c, 0, 56, 100
2, 7185, Note_on_c, 0, 39, 100
2, 7425, Note_on_c, 0, 60, 0
2, 7425, Note_on_c, 0, 72, 100
2, 7425, Note_on_c, 0, 38, 0
2, 7425, Note_on_c, 0, 56, 0
2, 8390, Note_on_c, 0, 60, 100
2, 8390, Note_on_c, 0, 65, 100
2, 8390, Note_on_c, 0, 39, 0
2, 8390, Note_on_c, 0, 72, 0
2, 8550, Note_on_c, 0, 72, 0
2, 8550, Note_on_c, 0, 72, 100
2, 9030, Note_on_c, 0, 71, 0
2, 9030, Note_on_c, 0, 64, 100
2, 9030, Note_on_c, 0, 60, 0
2, 9030, Note_on_c, 0, 65, 0
2, 9670, Note_on_c, 0, 62, 0
2, 9670, Note_on_c, 0, 78, 100
2, 10151, Note_on_c, 0, 67, 0
2, 10151, Note_on_c, 0, 38, 0
2, 10151, Note_on_c, 0, 76, 0
2, 10151, Note_on_c, 0, 58, 0
2, 10151, Note_on_c, 0, 38, 100
2, 10151, Note_on_c, 0, 72, 0
2, 10151, Note_on_c, 0, 64, 0
2, 10471, Note_on_c, 0, 62, 0
2, 10471, Note_on_c, 0, 48, 0
2, 10471, Note_on_c, 0, 30, 100
2, 11971, Note_on_c, 0, 54, 0
2, 11971, Note_on_c, 0, 53, 100
2, 11971, Note_on_c, 0, 78, 0
2, 11971, Note_on_c, 0, 38, 0
2, 12451, Note_on_c, 0, 74, 0
2, 12451, Note_on_c, 0, 38, 100
2, 12931, Note_on_c, 0, 38, 0
2, 12931, Note_on_c, 0, 38, 100
2, 12931, Note_on_c, 0, 74, 100
2, 12931, Note_on_c, 0, 30, 0
2, 12931, Note_on_c, 0, 53, 0
2, 13921, Note_on_c, 0, 31, 0
2, 13921, Note_on_c, 0, 31, 100
2, 17611, Note_on_c, 0, 52, 0
2, 18091, Note_on_c, 0, 71, 0
2, 18091, Note_on_c, 0, 69, 100
2, 18091, Note_on_c, 0, 38, 0
2, 18091, Note_on_c, 0, 74, 0
2, 18571, Note_on_c, 0, 68, 0
2, 18571, Note_on_c, 0, 67, 100
2, 19051, Note_on_c, 0, 80, 0
2, 19051, Note_on_c, 0, 69, 100
2, 19051, Note_on_c, 0, 31, 0
2, 19051, Note_on_c, 0, 69, 0
2, 19531, Note_on_c, 0, 53, 0
2, 19531, Note_on_c, 0, 48, 100
2, 20011, Note_on_c, 0, 41, 0
2, 20011, Note_on_c, 0, 32, 100
2, 20491, Note_on_c, 0, 32, 0
2, 20491, Note_on_c, 0, 50, 100
2, 20731, Note_on_c, 0, 56, 0
2, 22441, Note_on_c, 0, 30, 0
2, 22441, Note_on_c, 0, 38, 100
2, 22441, Note_on_c, 0, 67, 0
2, 22441, Note_on_c, 0, 48, 0
2, 23111, Note_on_c, 0, 41, 100
2, 23431, Note_on_c, 0, 30, 0
2, 23431, Note_on_c, 0, 38, 0
2, 23431, Note_on_c, 0, 55, 100
2, 23431, Note_on_c, 0, 38, 100
2, 23431, Note_on_c, 0, 50, 0
2, 23431, Note_on_c, 0, 41, 0
2, 23911, Note_on_c, 0, 62, 0
2, 23911, Note_on_c, 0, 38, 0
2, 23911, Note_on_c, 0, 38, 100
2, 24871, Note_on_c, 0, 42, 0
2, 24871, Note_on_c, 0, 32, 100
2, 24871, Note_on_c, 0, 74, 100
2, 24871, Note_on_c, 0, 55, 0
2, 24871, Note_on_c, 0, 38, 0
2, 25351, Note_on_c, 0, 32, 0
2, 25351, Note_on_c, 0, 32, 100
2, 25351, Note_on_c, 0, 74, 100
2, 25891, Note_on_c, 0, 69, 0
2, 26371, Note_on_c, 0, 62, 0
2, 26371, Note_on_c, 0, 70, 100
2, 26371, Note_on_c, 0, 74, 0
2, 26371, Note_on_c, 0, 32, 0
2, 26851, Note_on_c, 0, 70, 0
2, 26851, Note_on_c, 0, 64, 100
2, 27331, Note_on_c, 0, 60, 0
2, 27331, Note_on_c, 0, 62, 100
2, 27811, Note_on_c, 0, 64, 0
2, 27811, Note_on_c, 0, 30, 100
2, 28291, Note_on_c, 0, 69, 0
2, 28291, Note_on_c, 0, 71, 100
2, 28771, Note_on_c, 0, 67, 0
2, 28771, Note_on_c, 0, 67, 100
2, 28771, Note_on_c, 0, 62, 0
2, 28771, Note_on_c, 0, 30, 0
2, 29251, Note_on_c, 0, 73, 0
2, 30211, Note_on_c, 0, 69, 0
2, 30211, Note_on_c, 0, 64, 100
2, 30691, Note_on_c, 0, 67, 0
2, 30691, Note_on_c, 0, 70, 100
2, 31171, Note_on_c, 0, 62, 0
2, 31171, Note_on_c, 0, 66, 100
2, 31171, Note_on_c, 0, 71, 0
2, 31171, Note_on_c, 0, 64, 0
2, 31651, Note_on_c, 0, 67, 0
2, 31651, Note_on_c, 0, 64, 100
2, 32131, Note_on_c, 0, 62, 0
2, 32131, Note_on_c, 0, 76, 100
2, 32131, Note_on_c, 0, 70, 0
2, 32131, Note_on_c, 0, 66, 0
2, 32611, Note_on_c, 0, 67, 0
2, 32611, Note_on_c, 0, 70, 100
2, 33091, Note_on_c, 0, 70, 0
2, 33091, Note_on_c, 0, 67, 100
2, 35881, Note_on_c, 0, 62, 0
2, 35881, Note_on_c, 0, 53, 0
2, 35882, Note_on_c, 0, 53, 100
2, 35882, Note_on_c, 0, 64, 0
2, 35882, Note_on_c, 0, 76, 0
2, 35882, Note_on_c, 0, 41, 100
2, 36842, Note_on_c, 0, 42, 0
2, 36872, Note_on_c, 0, 41, 100
2, 36872, Note_on_c, 0, 67, 0
2, 36872, Note_on_c, 0, 53, 0
2, 37352, Note_on_c, 0, 62, 0
2, 37352, Note_on_c, 0, 38, 0
2, 37352, Note_on_c, 0, 38, 100
2, 37832, Note_on_c, 0, 38, 0
2, 37832, Note_on_c, 0, 38, 100
2, 38312, Note_on_c, 0, 38, 0
2, 38822, Note_on_c, 0, 48, 0
2, 39302, Note_on_c, 0, 62, 0
2, 39302, Note_on_c, 0, 38, 0
2, 39302, Note_on_c, 0, 38, 100
2, 39782, Note_on_c, 0, 62, 0
2, 39782, Note_on_c, 0, 76, 0
2, 39782, Note_on_c, 0, 41, 0
2, 39782, Note_on_c, 0, 50, 0
2, 39782, Note_on_c, 0, 49, 0
2, 39782, Note_on_c, 0, 62, 100
2, 39782, Note_on_c, 0, 59, 100
2, 40262, Note_on_c, 0, 62, 0
2, 40262, Note_on_c, 0, 76, 0
2, 40262, Note_on_c, 0, 53, 0
2, 40262, Note_on_c, 0, 50, 0
2, 40263, Note_on_c, 0, 62, 100
2, 40263, Note_on_c, 0, 59, 100
2, 40263, Note_on_c, 0, 38, 0
2, 40263, Note_on_c, 0, 59, 0
2, 40263, Note_on_c, 0, 55, 100
2, 40743, Note_on_c, 0, 53, 0
2, 40743, Note_on_c, 0, 48, 100
2, 41223, Note_on_c, 0, 48, 0
2, 41223, Note_on_c, 0, 53, 100
2, 42183, Note_on_c, 0, 62, 0
2, 42183, Note_on_c, 0, 69, 100
2, 42183, Note_on_c, 0, 61, 100
2, 42183, Note_on_c, 0, 55, 0
2, 42183, Note_on_c, 0, 53, 0
2, 42183, Note_on_c, 0, 55, 100
2, 42183, Note_on_c, 0, 52, 100
2, 42183, Note_on_c, 0, 69, 0
2, 42183, Note_on_c, 0, 61, 0
2, 42183, Note_on_c, 0, 58, 100
2, 44043, Note_on_c, 0, 55, 0
2, 44043, Note_on_c, 0, 50, 100
2, 44523, Note_on_c, 0, 50, 0
2, 44523, Note_on_c, 0, 48, 100
2, 45003, Note_on_c, 0, 48, 0
2, 45003, Note_on_c, 0, 48, 100
2, 45964, Note_on_c, 0, 70, 100
2, 45964, Note_on_c, 0, 52, 0
2, 45964, Note_on_c, 0, 58, 0
2, 45964, Note_on_c, 0, 62, 100
2, 45964, Note_on_c, 0, 78, 100
2, 45964, Note_on_c, 0, 48, 0
2, 45964, Note_on_c, 0, 70, 0
2, 45964, Note_on_c, 0, 50, 100
2, 46204, Note_on_c, 0, 56, 0
2, 46204, Note_on_c, 0, 76, 100
2, 46204, Note_on_c, 0, 62, 0
2, 46204, Note_on_c, 0, 78, 0
2, 46445, Note_on_c, 0, 67, 0
2, 46445, Note_on_c, 0, 70, 100
2, 46535, Note_on_c, 0, 76, 0
2, 46535, Note_on_c, 0, 78, 100
2, 46775, Note_on_c, 0, 70, 0
2, 46775, Note_on_c, 0, 63, 100
2, 47015, Note_on_c, 0, 67, 0
2, 47015, Note_on_c, 0, 63, 100
2, 47015, Note_on_c, 0, 50, 0
2, 47015, Note_on_c, 0, 78, 0
2, 47015, Note_on_c, 0, 53, 100
2, 47015, Note_on_c, 0, 50, 100
2, 47015, Note_on_c, 0, 63, 0
2, 47015, Note_on_c, 0, 53, 0
2, 47016, Note_on_c, 0, 48, 100
2, 50976, Note_on_c, 0, 56, 0
2, 50976, Note_on_c, 0, 58, 0
2, 50976, Note_on_c, 0, 55, 100
2, 50976, Note_on_c, 0, 50, 100
2, 50976, Note_on_c, 0, 50, 0
2, 50976, Note_on_c, 0, 48, 0
2, 51787, Note_on_c, 0, 64, 0
2, 51787, Note_on_c, 0, 69, 100
2, 52267, Note_on_c, 0, 41, 0
2, 52267, Note_on_c, 0, 38, 100
2, 52747, Note_on_c, 0, 42, 0
2, 52747, Note_on_c, 0, 74, 0
2, 52747, Note_on_c, 0, 42, 100
2, 52747, Note_on_c, 0, 55, 0
2, 52747, Note_on_c, 0, 69, 0
2, 53227, Note_on_c, 0, 39, 0
2, 53227, Note_on_c, 0, 39, 100
2, 54188, Note_on_c, 0, 62, 0
2, 54188, Note_on_c, 0, 60, 100
2, 54188, Note_on_c, 0, 38, 0
2, 54188, Note_on_c, 0, 42, 0
2, 54668, Note_on_c, 0, 71, 0
2, 54668, Note_on_c, 0, 69, 100
2, 55148, Note_on_c, 0, 62, 0
2, 55148, Note_on_c, 0, 70, 100
2, 55148, Note_on_c, 0, 39, 0
2, 55148, Note_on_c, 0, 60, 0
2, 55628, Note_on_c, 0, 62, 0
2, 55628, Note_on_c, 0, 70, 100
2, 55788, Note_on_c, 0, 72, 0
2, 55788, Note_on_c, 0, 73, 100
2, 55788, Note_on_c, 0, 69, 0
2, 55788, Note_on_c, 0, 70, 0
2, 55948, Note_on_c, 0, 73, 0
2, 55948, Note_on_c, 0, 72, 100
2, 56108, Note_on_c, 0, 79, 0
2, 56108, Note_on_c, 0, 77, 100
2, 56268, Note_on_c, 0, 77, 0
2, 56268, Note_on_c, 0, 39, 100
2, 56748, Note_on_c, 0, 70, 0
2, 56778, Note_on_c, 0, 67, 100
2, 56778, Note_on_c, 0, 59, 100
2, 56778, Note_on_c, 0, 72, 0
2, 56778, Note_on_c, 0, 39, 0
2, 57098, Note_on_c, 0, 67, 0
2, 57098, Note_on_c, 0, 64, 100
2, 57418, Note_on_c, 0, 67, 0
2, 57418, Note_on_c, 0, 72, 100
2, 57738, Note_on_c, 0, 70, 0
2, 57738, Note_on_c, 0, 67, 100
2, 57738, Note_on_c, 0, 59, 0
2, 57738, Note_on_c, 0, 64, 0
2, 58058, Note_on_c, 0, 67, 0
2, 58378, Note_on_c, 0, 55, 0
2, 58378, Note_on_c, 0, 76, 100
2, 58698, Note_on_c, 0, 56, 0
2, 58698, Note_on_c, 0, 67, 100
2, 59018, Note_on_c, 0, 62, 0
2, 59018, Note_on_c, 0, 70, 100
2, 59018, Note_on_c, 0, 72, 0
2, 59018, Note_on_c, 0, 76, 0
2, 59178, Note_on_c, 0, 67, 0
2, 59178, Note_on_c, 0, 76, 100
2, 59338, Note_on_c, 0, 72, 0
2, 59338, Note_on_c, 0, 75, 100
2, 59728, Note_on_c, 0, 62, 0
2, 59728, Note_on_c, 0, 70, 100
2, 59728, Note_on_c, 0, 70, 0
2, 59728, Note_on_c, 0, 76, 0
2, 59968, Note_on_c, 0, 70, 0
2, 59968, Note_on_c, 0, 68, 100
2, 60208, Note_on_c, 0, 62, 0
2, 60208, Note_on_c, 0, 68, 100
2, 60448, Note_on_c, 0, 68, 0
2, 60448, Note_on_c, 0, 60, 100
2, 60688, Note_on_c, 0, 63, 0
2, 60688, Note_on_c, 0, 59, 100
2, 60928, Note_on_c, 0, 70, 0
2, 60928, Note_on_c, 0, 67, 100
2, 60928, Note_on_c, 0, 75, 0
2, 60928, Note_on_c, 0, 60, 0
2, 61408, Note_on_c, 0, 62, 0
2, 61408, Note_on_c, 0, 59, 0
2, 61408, Note_on_c, 0, 55, 0
2, 61408, Note_on_c, 0, 50, 0
2, 61408, Note_on_c, 0, 32, 0
2, 61408, Note_on_c, 0, 40, 0
2, 61408, Note_on_c, 0, 64, 100
2, 61408, Note_on_c, 0, 59, 100
2, 61408, Note_on_c, 0, 55, 100
2, 61408, Note_on_c, 0, 67, 0
2, 61408, Note_on_c, 0, 64, 0
2, 61408, Note_on_c, 0, 50, 100
2, 61408, Note_on_c, 0, 32, 100
2, 61408, Note_on_c, 0, 59, 0
2, 61408, Note_on_c, 0, 55, 0
2, 61408, Note_on_c, 0, 40, 100
2, 62368, Note_on_c, 0, 42, 0
2, 62368, Note_on_c, 0, 38, 0
2, 62368, Note_on_c, 0, 42, 100
2, 62368, Note_on_c, 0, 50, 0
2, 62368, Note_on_c, 0, 32, 0
2, 62368, Note_on_c, 0, 74, 100
2, 63328, Note_on_c, 0, 50, 0
2, 63328, Note_on_c, 0, 49, 100
2, 63328, Note_on_c, 0, 40, 0
2, 63328, Note_on_c, 0, 42, 0
2, 63808, Note_on_c, 0, 62, 0
2, 63808, Note_on_c, 0, 30, 100
2, 64288, Note_on_c, 0, 69, 0
2, 64288, Note_on_c, 0, 64, 100
2, 64288, Note_on_c, 0, 74, 0
2, 64288, Note_on_c, 0, 49, 0
2, 64768, Note_on_c, 0, 62, 0
2, 64768, Note_on_c, 0, 64, 100
2, 65248, Note_on_c, 0, 64, 0
2, 65248, Note_on_c, 0, 56, 100
2, 65728, Note_on_c, 0, 53, 0
2, 65728, Note_on_c, 0, 55, 100
2, 66208, Note_on_c, 0, 55, 0
2, 66208, Note_on_c, 0, 50, 100
2, 66688, Note_on_c, 0, 50, 0
2, 66688, Note_on_c, 0, 48, 100
2, 67648, Note_on_c, 0, 70, 0
2, 67798, Note_on_c, 0, 62, 100
2, 67798, Note_on_c, 0, 30, 0
2, 67798, Note_on_c, 0, 56, 0
2, 67798, Note_on_c, 0, 55, 100
2, 68068, Note_on_c, 0, 75, 0
2, 68068, Note_on_c, 0, 72, 100
2, 68068, Note_on_c, 0, 48, 0
2, 68068, Note_on_c, 0, 62, 0
2, 68308, Note_on_c, 0, 75, 0
2, 68308, Note_on_c, 0, 77, 100
2, 68548, Note_on_c, 0, 68, 0
2, 68548, Note_on_c, 0, 70, 100
2, 68548, Note_on_c, 0, 55, 0
2, 68548, Note_on_c, 0, 72, 0
2, 68788, Note_on_c, 0, 70, 0
2, 68788, Note_on_c, 0, 76, 100
2, 69028, Note_on_c, 0, 52, 0
2, 69028, Note_on_c, 0, 50, 100
2, 69268, Note_on_c, 0, 56, 0
2, 69268, Note_on_c, 0, 62, 100
2, 69268, Note_on_c, 0, 77, 0
2, 69268, Note_on_c, 0, 76, 0
2, 69268, Note_on_c, 0, 53, 100
2, 69428, Note_on_c, 0, 73, 0
2, 69428, Note_on_c, 0, 73, 100
2, 69428, Note_on_c, 0, 50, 0
2, 69428, Note_on_c, 0, 62, 0
2, 69748, Note_on_c, 0, 67, 0
2, 69748, Note_on_c, 0, 62, 100
2, 70073, Note_on_c, 0, 70, 0
2, 70073, Note_on_c, 0, 70, 100
2, 70073, Note_on_c, 0, 53, 0
2, 70073, Note_on_c, 0, 73, 0
2, 70553, Note_on_c, 0, 62, 0
2, 70553, Note_on_c, 0, 62, 100
2, 71033, End_track
